<?xml version="1.0" encoding="UTF-8" standalone="no"?>
<!DOCTYPE svg PUBLIC "-//W3C//DTD SVG 1.1//EN" "http://www.w3.org/Graphics/SVG/1.1/DTD/svg11.dtd">
<svg width="100%" height="100%" viewBox="0 0 701 292" version="1.1" xmlns="http://www.w3.org/2000/svg" xmlns:xlink="http://www.w3.org/1999/xlink" xml:space="preserve" xmlns:serif="http://www.serif.com/" style="fill-rule:evenodd;clip-rule:evenodd;stroke-linejoin:round;stroke-miterlimit:2;">
    <g transform="matrix(1,0,0,1,-289.59,-250.27)">
        <path d="M498.73,500.48C521.69,500.48 540.36,481.8 540.36,458.85C540.36,435.9 521.68,417.22 498.73,417.22C475.78,417.22 457.09,435.9 457.09,458.85C457.09,481.8 475.77,500.48 498.73,500.48ZM498.73,426.78C516.41,426.78 530.8,441.16 530.8,458.85C530.8,476.54 516.42,490.92 498.73,490.92C481.04,490.92 466.66,476.54 466.66,458.85C466.66,441.16 481.04,426.78 498.73,426.78Z" style="fill:rgb(13,13,13);fill-rule:nonzero;"/>
        <path d="M427.22,250.27L417.65,250.27L417.65,301.91L342.09,301.91L342.09,377.47L289.59,377.47L289.59,387.04L342.09,387.04L342.09,541.73L581.91,541.73L581.91,301.91L427.22,301.91L427.22,250.27ZM417.65,532.16L351.65,532.16L351.65,387.03L417.65,387.03L417.65,532.16ZM417.65,377.47L351.65,377.47L351.65,311.48L417.65,311.48L417.65,377.47ZM572.34,532.16L427.21,532.16L427.21,387.03L572.34,387.03L572.34,532.16ZM572.34,311.47L572.34,377.46L427.21,377.46L427.21,311.47L572.34,311.47Z" style="fill:rgb(13,13,13);fill-rule:nonzero;"/>
        <path d="M664.64,374.12C667.47,373.04 669.72,371.37 671.41,369.13C673.1,366.88 673.95,364 673.95,360.46C673.95,357.89 673.36,355.68 672.17,353.84C670.98,352 669.34,350.56 667.25,349.53C666.57,349.19 665.79,348.98 665.03,348.74C665.26,348.62 665.47,348.52 665.7,348.39C667.27,347.51 668.6,346.34 669.71,344.87C670.82,343.41 671.38,341.54 671.38,339.27C671.38,335.89 670.62,333.18 669.11,331.13C667.59,329.09 665.49,327.6 662.79,326.66C660.09,325.73 656.9,325.26 653.21,325.26L631.79,325.26L631.79,375.75L655.25,375.75C658.68,375.75 661.81,375.21 664.64,374.12ZM644.05,334.8L653.14,334.8C654.75,334.8 656.12,335.19 657.23,335.97C658.34,336.75 658.9,338.18 658.9,340.25C658.9,341.41 658.66,342.34 658.18,343.05C657.7,343.76 657.08,344.27 656.33,344.6C655.57,344.93 654.76,345.09 653.91,345.09L644.07,345.09L644.07,334.8L644.05,334.8ZM644.05,366.29L644.05,354.1L654.12,354.1C655.08,354.1 655.99,354.2 656.85,354.4C657.71,354.6 658.48,354.92 659.16,355.35C659.84,355.78 660.38,356.37 660.79,357.13C661.19,357.89 661.39,358.85 661.39,360.01C661.39,361.58 661.06,362.82 660.41,363.76C659.75,364.69 658.9,365.35 657.84,365.73C656.78,366.11 655.62,366.3 654.36,366.3L644.07,366.3L644.05,366.29Z" style="fill:rgb(13,13,13);fill-rule:nonzero;"/>
        <path d="M717.17,366.29L694.84,366.29L694.84,355.24L714.22,355.24L714.22,345.7L694.84,345.7L694.84,334.73L717.17,334.73L717.17,325.27L682.58,325.27L682.58,375.75L717.17,375.75L717.17,366.29Z" style="fill:rgb(13,13,13);fill-rule:nonzero;"/>
        <path d="M738.29,364.85L757.16,364.85L760.85,375.75L773.41,375.75L755.55,325.26L742.15,325.26L723.08,375.75L734.66,375.75L738.29,364.85ZM747.65,336.78L754.11,355.85L741.3,355.85L747.66,336.78L747.65,336.78Z" style="fill:rgb(13,13,13);fill-rule:nonzero;"/>
        <path d="M785.56,372.38C789.42,375.69 795.23,377.34 803,377.34C807.14,377.34 810.77,376.61 813.9,375.15C817.03,373.69 819.49,371.45 821.28,368.45C823.07,365.45 823.97,361.6 823.97,356.91L823.97,325.27L812.31,325.27L812.31,356.38C812.31,360.27 811.44,363.14 809.7,365.01C807.96,366.88 805.52,367.81 802.4,367.81C798.97,367.81 796.47,366.88 794.91,365.01C793.34,363.14 792.56,360.27 792.56,356.38L792.56,325.27L779.77,325.27L779.77,356.91C779.77,363.92 781.7,369.08 785.56,372.39L785.56,372.38Z" style="fill:rgb(13,13,13);fill-rule:nonzero;"/>
        <path d="M845.32,375.75L857.58,375.75L857.58,334.73L871.96,334.73L871.96,325.27L831.16,325.27L831.16,334.73L845.32,334.73L845.32,375.75Z" style="fill:rgb(13,13,13);fill-rule:nonzero;"/>
        <path d="M894.51,375.75L906.78,375.75L906.78,354.13L924.41,325.27L912.23,325.27L901.84,344.42L890.43,325.27L875.36,325.27L894.51,353.95L894.51,375.75Z" style="fill:rgb(13,13,13);fill-rule:nonzero;"/>
        <path d="M644.05,430.89L654.5,430.89C660.4,430.89 665.05,429.38 668.43,426.35C671.81,423.32 673.5,419.01 673.5,413.41C673.5,407.81 671.81,403.67 668.43,401C665.05,398.33 660.41,396.99 654.5,396.99L631.79,396.99L631.79,447.48L644.05,447.48L644.05,430.89ZM644.05,406.52L652.98,406.52C654.29,406.52 655.41,406.7 656.35,407.05C657.28,407.4 658.03,407.93 658.58,408.64C659.13,409.35 659.55,410.15 659.83,411.06C660.11,411.97 660.25,413.03 660.25,414.24C660.25,415.25 660.11,416.2 659.83,417.08C659.55,417.96 659.14,418.73 658.58,419.39C658.02,420.05 657.28,420.55 656.35,420.9C655.42,421.25 654.29,421.43 652.98,421.43L644.05,421.43L644.05,406.52Z" style="fill:rgb(13,13,13);fill-rule:nonzero;"/>
        <path d="M712.86,417.41L694.31,417.41L694.31,396.98L682.05,396.98L682.05,447.46L694.31,447.46L694.31,427.4L712.86,427.4L712.86,447.46L725.04,447.46L725.04,396.98L712.86,396.98L712.86,417.41Z" style="fill:rgb(13,13,13);fill-rule:nonzero;"/>
        <path d="M779.92,407.42C777.9,403.59 775.04,400.72 771.33,398.83C767.62,396.94 763.27,395.99 758.27,395.99C750.5,395.99 744.44,398.21 740.1,402.65C735.76,407.09 733.59,413.62 733.59,422.25C733.59,428.21 734.61,433.13 736.66,437.01C738.7,440.9 741.57,443.79 745.25,445.68C748.93,447.57 753.27,448.52 758.27,448.52C766.09,448.52 772.16,446.3 776.47,441.86C780.78,437.42 782.94,430.86 782.94,422.18C782.94,416.18 781.93,411.26 779.91,407.42L779.92,407.42ZM768.91,431.68C767.98,434.08 766.61,435.8 764.82,436.86C763.03,437.92 760.85,438.45 758.27,438.45C755.69,438.45 753.53,437.93 751.76,436.9C749.99,435.87 748.65,434.18 747.71,431.83C746.78,429.48 746.31,426.32 746.31,422.33C746.31,418.34 746.78,415.09 747.71,412.72C748.64,410.35 749.99,408.63 751.76,407.57C753.53,406.51 755.7,405.98 758.27,405.98C760.84,405.98 763.02,406.5 764.82,407.53C766.61,408.56 767.97,410.27 768.91,412.64C769.84,415.01 770.31,418.19 770.31,422.18C770.31,426.17 769.84,429.28 768.91,431.68Z" style="fill:rgb(13,13,13);fill-rule:nonzero;"/>
        <path d="M787.72,406.44L801.87,406.44L801.87,447.46L814.13,447.46L814.13,406.44L828.51,406.44L828.51,396.98L787.72,396.98L787.72,406.44Z" style="fill:rgb(13,13,13);fill-rule:nonzero;"/>
        <path d="M879.53,407.42C877.51,403.59 874.65,400.72 870.94,398.83C867.23,396.94 862.88,395.99 857.88,395.99C850.11,395.99 844.05,398.21 839.71,402.65C835.37,407.09 833.2,413.62 833.2,422.25C833.2,428.21 834.22,433.13 836.26,437.01C838.31,440.9 841.17,443.79 844.85,445.68C848.53,447.57 852.87,448.52 857.87,448.52C865.69,448.52 871.76,446.3 876.07,441.86C880.38,437.42 882.54,430.86 882.54,422.18C882.54,416.18 881.53,411.26 879.51,407.42L879.53,407.42ZM868.52,431.68C867.59,434.08 866.23,435.8 864.43,436.86C862.64,437.92 860.45,438.45 857.88,438.45C855.31,438.45 853.14,437.93 851.37,436.9C849.6,435.87 848.25,434.18 847.32,431.83C846.39,429.48 845.92,426.32 845.92,422.33C845.92,418.34 846.38,415.09 847.32,412.72C848.25,410.35 849.6,408.63 851.37,407.57C853.13,406.51 855.3,405.98 857.88,405.98C860.46,405.98 862.63,406.5 864.43,407.53C866.22,408.56 867.58,410.27 868.52,412.64C869.45,415.01 869.92,418.19 869.92,422.18C869.92,426.17 869.45,429.28 868.52,431.68Z" style="fill:rgb(13,13,13);fill-rule:nonzero;"/>
        <path d="M646.48,462.89L627.41,513.38L638.99,513.38L642.62,502.48L661.49,502.48L665.18,513.38L677.74,513.38L659.88,462.89L646.48,462.89ZM645.62,493.47L651.97,474.4L658.43,493.47L645.62,493.47Z" style="fill:rgb(13,13,13);fill-rule:nonzero;"/>
        <path d="M704.76,461.75C696.33,461.75 690.08,463.98 685.99,468.45C681.9,472.92 679.86,479.49 679.86,488.17C679.86,496.85 681.99,503.7 686.26,507.96C690.52,512.23 696.69,514.36 704.77,514.36C706.59,514.36 708.47,514.21 710.41,513.9C712.35,513.6 714.22,513.18 716.01,512.65C717.8,512.12 719.4,511.5 720.82,510.8L720.82,500.13C718.2,501.85 715.7,503.06 713.33,503.76C710.96,504.47 708.84,504.82 706.97,504.82C703.84,504.82 701.2,504.3 699.06,503.27C696.92,502.24 695.3,500.51 694.21,498.09C693.12,495.67 692.58,492.36 692.58,488.17C692.58,483.98 693.12,480.65 694.21,478.18C695.3,475.71 696.86,473.94 698.9,472.88C700.94,471.82 703.45,471.29 706.43,471.29C708.55,471.29 710.82,471.67 713.24,472.43C715.66,473.19 718.19,474.42 720.81,476.14L720.81,465.47C718.24,464.31 715.59,463.4 712.86,462.75C710.14,462.09 707.44,461.77 704.76,461.77L704.76,461.75Z" style="fill:rgb(13,13,13);fill-rule:nonzero;"/>
        <path d="M744.8,462.89L725.73,513.38L737.31,513.38L740.94,502.48L759.81,502.48L763.5,513.38L776.06,513.38L758.2,462.89L744.8,462.89ZM743.94,493.47L750.3,474.4L756.76,493.47L743.94,493.47Z" style="fill:rgb(13,13,13);fill-rule:nonzero;"/>
        <path d="M802.7,462.89L782.41,462.89L782.41,513.38L802.7,513.38C811.28,513.38 817.58,511.25 821.62,506.98C825.66,502.72 827.67,496.45 827.67,488.17C827.67,479.89 825.65,473.55 821.62,469.29C817.58,465.03 811.27,462.89 802.7,462.89ZM811.59,500.13C809.24,502.65 805.8,503.91 801.26,503.91L794.67,503.91L794.67,472.35L801.26,472.35C805.8,472.35 809.24,473.6 811.59,476.1C813.94,478.6 815.11,482.62 815.11,488.17C815.11,493.72 813.94,497.61 811.59,500.13Z" style="fill:rgb(13,13,13);fill-rule:nonzero;"/>
        <path d="M836.24,513.37L870.83,513.37L870.83,503.91L848.5,503.91L848.5,492.86L867.87,492.86L867.87,483.32L848.5,483.32L848.5,472.35L870.83,472.35L870.83,462.89L836.24,462.89L836.24,513.37Z" style="fill:rgb(13,13,13);fill-rule:nonzero;"/>
        <path d="M907.73,482.57L893.61,462.89L881.12,462.89L881.12,513.37L892.85,513.37L892.85,479.29L907.31,498.99L922.14,479.28L922.14,513.37L934.4,513.37L934.4,462.89L922.22,462.89L907.73,482.57Z" style="fill:rgb(13,13,13);fill-rule:nonzero;"/>
        <path d="M978.23,462.89L967.84,482.04L956.43,462.89L941.37,462.89L960.52,491.57L960.52,513.37L972.78,513.37L972.78,491.75L990.41,462.89L978.23,462.89Z" style="fill:rgb(13,13,13);fill-rule:nonzero;"/>
    </g>
</svg>
